<svg id="export" xmlns="http://www.w3.org/2000/svg" viewBox="0 0 256 256"><defs><style>.cls-1{fill:#f1efe0;}</style></defs><title>logo-nathan-2</title><path class="cls-1" d="M128.5,0a128,128,0,1,0,128,128A128,128,0,0,0,128.5,0Zm40.07,148a63.69,63.69,0,0,1-6.11,12.33,36,36,0,0,1-7,8.58,31.28,31.28,0,0,1-15.92,7,40.61,40.61,0,0,1-8.88.36,41.69,41.69,0,0,1-7.5-1.19v0h-.67V77.54L82.38,175H48c10-24.35,19.87-48.74,30-73A63.47,63.47,0,0,1,84.12,89.6a36.42,36.42,0,0,1,7-8.6,31.48,31.48,0,0,1,16-7,40.39,40.39,0,0,1,8.93-.36,42.36,42.36,0,0,1,7.54,1.19l-.11.26V174.2L164.2,75h34.18C188.44,99.34,178.61,123.69,168.57,148Z" transform="translate(-0.5)"/></svg>